<svg xmlns="http://www.w3.org/2000/svg" xmlns:xlink="http://www.w3.org/1999/xlink">
<symbol id="icon-calendar" viewBox="0 0 235.371 235.371">
    <path d="M6.662,219.686h222.047V79.42h6.662V35.011h-31.936V15.686h-21.5v19.326h-28.5V15.686h-21.5v19.326h-28.5V15.686h-21.5 v19.326h-28.5V15.686h-21.5v19.326H0V79.42h6.662V219.686z M31.74,95.895h171.891v98.712H31.74V95.895z M51.508,109.027h27.863 v27.865H51.508V109.027z M103.754,109.027h27.863v27.865h-27.863V109.027z M156,109.027h27.865v27.865H156V109.027z M51.508,150.824 h27.863v27.865H51.508V150.824z M103.754,150.824h27.863v27.865h-27.863V150.824z M156,150.824h27.865v27.865H156V150.824z"/>
  </symbol>
  <symbol id="icon-clock" viewBox="0 0 512 512">
  <path d="M256,0C114.511,0,0,114.496,0,256c0,141.491,114.496,256,256,256c141.489,0,256-114.496,256-256 C512,114.509,397.504,0,256,0z M256,476.279c-121.463,0-220.279-98.817-220.279-220.279S134.537,35.721,256,35.721 S476.279,134.538,476.279,256S377.463,476.279,256,476.279z"/>
  <path d="M273.86,204.469v-92.543c0-9.864-7.997-17.86-17.86-17.86s-17.86,7.997-17.86,17.86v92.14 c-21.43,7.226-36.912,27.503-36.912,51.339c0,8.742,2.094,17,5.787,24.318l-42.229,42.229c-6.975,6.975-6.975,18.283,0,25.258 c6.974,6.975,18.283,6.976,25.258,0l42.64-42.641c6.914,3.209,14.609,5.013,22.72,5.013c29.873,0,54.177-24.303,54.177-54.177 C309.581,232.01,294.674,212.034,273.86,204.469z M255.405,273.86c-10.177,0-18.456-8.279-18.456-18.456 s8.279-18.456,18.456-18.456s18.456,8.279,18.456,18.456S265.582,273.86,255.405,273.86z"/>
  </symbol>
</svg>